<svg width="79" height="80" xmlns="http://www.w3.org/2000/svg" xmlns:xlink="http://www.w3.org/1999/xlink" xml:space="preserve" overflow="hidden"><g transform="translate(-172 -205)"><path d="M16.4583 11.5208 11.5208 11.5208 11.5208 67.4792 67.4792 67.4792 67.4792 62.5417 16.4583 62.5417 16.4583 11.5208Z" fill="#0070C0" transform="matrix(1 0 0 1.01266 172 205)"/><path d="M51.0208 47.6913C49.0903 47.6913 45.4357 41.7285 43.501 35.4216 41.9449 30.3492 37.576 18.5518 30.6635 18.5518 24.4703 18.5518 21.4427 27.8755 19.9936 35.6965L24.8488 36.5968C26.6181 27.0509 29.3551 23.4893 30.6643 23.4893 32.5924 23.4893 36.2421 28.6054 38.7783 36.8708 39.2721 38.4837 43.8211 52.6296 51.0184 52.6296 56.0382 52.6296 59.7413 47.1811 62.0224 36.4503L67.4397 37.8542 61.6365 27.9792 51.7615 33.7857 57.2429 35.2085C55.4317 43.8277 52.8156 47.6913 51.0208 47.6913Z" fill="#0070C0" transform="matrix(1 0 0 1.01266 172 205)"/></g></svg>