<svg width="71" height="71" xmlns="http://www.w3.org/2000/svg" xmlns:xlink="http://www.w3.org/1999/xlink" xml:space="preserve" overflow="hidden"><g transform="translate(-901 -138)"><path d="M925.406 187.552 925.406 148.533 931.973 155.1C932.854 155.951 934.259 155.927 935.11 155.045 935.941 154.186 935.941 152.822 935.11 151.963L924.756 141.608C923.89 140.742 922.485 140.742 921.619 141.608L911.265 151.963C910.413 152.844 910.438 154.249 911.319 155.1 912.179 155.93 913.542 155.93 914.402 155.1L920.969 148.533 920.969 187.552C920.969 188.777 921.962 189.771 923.188 189.771 924.413 189.771 925.406 188.777 925.406 187.552Z" fill="#FF0000"/><path d="M952.031 159.448 952.031 198.467 958.598 191.9C959.479 191.049 960.884 191.073 961.735 191.955 962.566 192.814 962.566 194.178 961.735 195.037L951.381 205.392C950.515 206.258 949.11 206.258 948.244 205.392L937.89 195.037C937.038 194.156 937.063 192.751 937.944 191.9 938.804 191.07 940.167 191.07 941.027 191.9L947.594 198.467 947.594 159.448C947.594 158.223 948.587 157.229 949.812 157.229 951.038 157.229 952.031 158.223 952.031 159.448Z" fill="#FF0000"/></g></svg>