<svg width="73" height="73" xmlns="http://www.w3.org/2000/svg" xmlns:xlink="http://www.w3.org/1999/xlink" xml:space="preserve" overflow="hidden"><g transform="translate(-693 -280)"><path d="M715.052 330.948C715.052 331.368 715.393 331.708 715.812 331.708 716.232 331.708 716.573 331.368 716.573 330.948L716.573 287.177C716.573 287.173 716.576 287.169 716.581 287.169 716.583 287.169 716.584 287.17 716.586 287.171L726.681 297.267C726.983 297.559 727.465 297.55 727.756 297.248 728.041 296.953 728.041 296.486 727.756 296.192L716.35 284.785C716.053 284.488 715.572 284.488 715.275 284.785L703.869 296.192C703.577 296.494 703.585 296.975 703.887 297.267 704.182 297.551 704.649 297.551 704.944 297.267L715.039 287.171C715.042 287.169 715.047 287.169 715.05 287.172 715.051 287.173 715.052 287.175 715.052 287.177Z" fill="#FF0000"/><path d="M754.056 335.733 743.961 345.829C743.958 345.831 743.953 345.831 743.95 345.828 743.949 345.827 743.948 345.825 743.948 345.823L743.948 302.052C743.948 301.632 743.607 301.292 743.188 301.292 742.768 301.292 742.427 301.632 742.427 302.052L742.427 345.823C742.427 345.827 742.424 345.831 742.419 345.831 742.417 345.831 742.416 345.83 742.414 345.829L732.319 335.733C732.017 335.441 731.535 335.45 731.244 335.752 730.959 336.047 730.959 336.514 731.244 336.808L742.65 348.215C742.947 348.512 743.428 348.512 743.725 348.215L755.131 336.808C755.423 336.506 755.415 336.025 755.113 335.733 754.818 335.449 754.351 335.449 754.056 335.733Z" fill="#FF0000"/></g></svg>