<svg width="61" height="61" xmlns="http://www.w3.org/2000/svg" xmlns:xlink="http://www.w3.org/1999/xlink" xml:space="preserve" overflow="hidden"><g transform="translate(-1010 -190)"><path d="M1064.01 211.604 1032.56 211.604 1044.31 208.999C1046.03 208.618 1047.11 206.902 1046.73 205.186 1046.35 203.471 1044.63 202.391 1042.91 202.772L1025.76 206.584C1025.12 206.775 1024.49 207.156 1023.98 207.792L1018.58 214.781 1013.81 214.781 1013.81 233.208 1016.99 233.208C1021.5 233.208 1021.82 238.292 1030.33 238.292 1032.37 238.292 1039.1 238.292 1041.77 238.292 1043.87 238.292 1045.58 236.576 1045.58 234.479 1045.58 233.462 1045.2 232.573 1044.57 231.938 1044.69 231.938 1044.82 231.938 1044.95 231.938 1047.04 231.938 1048.76 230.222 1048.76 228.125 1048.76 227.108 1048.38 226.155 1047.68 225.456 1049.4 225.075 1050.67 223.55 1050.67 221.771 1050.67 219.674 1048.95 217.958 1046.85 217.958L1064.01 217.958C1065.79 217.958 1067.19 216.56 1067.19 214.781 1067.19 213.002 1065.79 211.604 1064.01 211.604Z" fill="#FF0000"/></g></svg>