<svg width="114" height="114" xmlns="http://www.w3.org/2000/svg" xmlns:xlink="http://www.w3.org/1999/xlink" xml:space="preserve" overflow="hidden"><defs><clipPath id="clip0"><path d="M1028.51 305.586 1104.16 268.508 1141.24 344.163 1065.59 381.24Z" fill-rule="evenodd" clip-rule="evenodd"/></clipPath><clipPath id="clip1"><path d="M1028.51 305.586 1104.16 268.508 1141.24 344.163 1065.59 381.24Z" fill-rule="evenodd" clip-rule="evenodd"/></clipPath><clipPath id="clip2"><path d="M1028.51 305.586 1104.16 268.508 1141.24 344.163 1065.59 381.24Z" fill-rule="evenodd" clip-rule="evenodd"/></clipPath></defs><g transform="translate(-1028 -268)"><g clip-path="url(#clip0)"><g clip-path="url(#clip1)"><g clip-path="url(#clip2)"><path d="M1064.56 297.787 1075 292.768C1076.34 292.111 1076.87 290.585 1076.21 289.245 1075.55 287.905 1074.03 287.383 1072.69 288.039L1056.85 295.606C1056.3 295.876 1055.9 296.266 1055.62 296.892 1055.54 296.93 1055.58 297.009 1055.54 297.126 1055.5 297.244 1055.42 297.283 1055.42 297.479 1055.42 297.479 1055.38 297.596 1055.42 297.675 1055.42 297.675 1055.38 297.792 1055.42 297.871 1055.33 298.302 1055.45 298.735 1055.64 299.129L1063.21 314.968C1063.86 316.307 1065.39 316.83 1066.73 316.173 1068.07 315.517 1068.59 313.99 1067.94 312.65L1063.23 302.84C1079.81 305.366 1091.63 314.527 1098.29 330.123 1101.49 337.841 1103.27 346.058 1103.48 354.46 1103.51 355.912 1104.64 357.02 1106.09 356.992 1107.46 357.003 1108.69 355.914 1108.74 354.423 1108.54 345.433 1106.68 336.469 1103.18 328.121 1098.13 316.227 1087.34 301.383 1064.56 297.787Z" fill="#C00000"/></g></g></g></g></svg>