<svg width="123" height="66" xmlns="http://www.w3.org/2000/svg" xmlns:xlink="http://www.w3.org/1999/xlink" xml:space="preserve" overflow="hidden"><defs><clipPath id="clip0"><rect x="651" y="161" width="123" height="66"/></clipPath></defs><g clip-path="url(#clip0)" transform="translate(-651 -161)"><path d="M653.766 179.165 685.312 179.165C686.556 179.165 687.565 180.174 687.565 181.418L687.565 224.747C687.565 225.991 686.556 227 685.312 227L653.766 227C652.522 227 651.513 225.991 651.513 224.747L651.513 181.418C651.513 180.174 652.522 179.165 653.766 179.165ZM719.409 170.37 719.409 191.772 712.063 191.772 712.063 178.262 707.577 180.049 705.591 174.788 713.195 170.37ZM677.321 210.086 662.432 210.086 662.432 204.487 665.251 201.757C665.866 201.192 666.452 200.636 667.008 200.07L668.387 198.72C668.76 198.345 669.093 197.933 669.38 197.489 669.611 197.189 669.792 196.854 669.916 196.496 669.976 196.266 670.006 196.029 670.005 195.792 670.07 195.367 669.874 194.945 669.509 194.72 668.957 194.533 668.374 194.456 667.792 194.491 666.355 194.481 664.919 194.6 663.504 194.849L662.819 194.978 662.432 189.369C664.702 188.57 667.092 188.163 669.499 188.168 671.58 188.04 673.641 188.632 675.336 189.846 676.743 190.966 677.526 192.695 677.44 194.491 677.521 196.106 677.179 197.714 676.448 199.157 675.504 200.585 674.261 201.79 672.805 202.69L670.631 204.219 677.321 204.219 677.321 210.076ZM753.853 197.916C757.042 197.916 759.359 198.369 760.801 199.276 762.244 200.182 762.965 201.787 762.965 204.09 763.009 205.02 762.861 205.95 762.529 206.82 762.17 207.52 761.636 208.115 760.98 208.547 761.667 209.05 762.248 209.684 762.687 210.413 763.076 211.23 763.253 212.131 763.204 213.034 763.204 215.74 762.499 217.61 761.089 218.642 759.68 219.674 757.503 220.187 754.558 220.181 752.619 220.176 750.686 219.97 748.791 219.565L747.719 219.337 747.867 213.609C750.362 213.828 752.139 213.937 753.198 213.937 753.908 213.972 754.618 213.912 755.312 213.758 755.65 213.653 755.868 213.327 755.838 212.974 755.872 212.654 755.732 212.34 755.471 212.15 755.059 211.912 754.586 211.798 754.111 211.823L749.525 211.823 749.525 206.065 753.813 206.065C754.985 206.065 755.57 205.738 755.57 205.073 755.57 204.408 754.826 204.08 753.327 204.08 752.334 204.08 750.815 204.16 748.84 204.308L747.996 204.378 747.798 198.859C749.757 198.294 751.776 197.961 753.813 197.866ZM696.727 161 728.273 161C729.517 161 730.526 162.009 730.526 163.253L730.526 224.796C730.526 226.041 729.517 227.05 728.273 227.05L696.727 227.05C695.483 227.05 694.474 226.041 694.474 224.796L694.474 163.253C694.474 162.009 695.483 161 696.727 161ZM739.688 191.126 771.234 191.126C772.476 191.132 773.482 192.137 773.487 193.38L773.487 224.747C773.487 225.991 772.479 227 771.234 227L739.688 227C738.444 227 737.435 225.991 737.435 224.747L737.435 193.38C737.435 192.135 738.444 191.126 739.688 191.126Z" fill="#FD625E" fill-rule="evenodd"/></g></svg>