<svg width="84" height="83" xmlns="http://www.w3.org/2000/svg" xmlns:xlink="http://www.w3.org/1999/xlink" xml:space="preserve" overflow="hidden"><g transform="translate(-823 -258)"><path d="M62.716 18.1562C61.283 13.6015 56.4288 11.0707 51.874 12.5038 49.1796 13.3515 47.0692 15.4619 46.2215 18.1562L12.1042 18.1562 12.1042 23.3438 46.2215 23.3438C47.6545 27.8985 52.5087 30.4293 57.0635 28.9962 59.7579 28.1485 61.8683 26.0381 62.716 23.3438L70.8958 23.3438 70.8958 18.1562ZM54.4688 24.2083C52.5588 24.2083 51.0104 22.66 51.0104 20.75 51.0104 18.84 52.5588 17.2917 54.4688 17.2917 56.3787 17.2917 57.9271 18.84 57.9271 20.75 57.9271 22.66 56.3787 24.2083 54.4688 24.2083Z" fill="#FF0000" transform="matrix(1.01205 0 0 1 823 258)"/><path d="M51.0104 53.6042C47.2363 53.609 43.8999 56.0573 42.7632 59.6562L12.1042 59.6562 12.1042 64.8438 42.7632 64.8438C44.1962 69.3986 49.0504 71.9293 53.6052 70.4962 56.2996 69.6485 58.41 67.5381 59.2577 64.8438L70.8958 64.8438 70.8958 59.6562 59.2577 59.6562C58.1209 56.0573 54.7845 53.609 51.0104 53.6042ZM51.0104 65.7083C49.1005 65.7083 47.5521 64.16 47.5521 62.25 47.5521 60.34 49.1005 58.7917 51.0104 58.7917 52.9204 58.7917 54.4688 60.34 54.4688 62.25 54.4688 64.16 52.9204 65.7083 51.0104 65.7083Z" fill="#FF0000" transform="matrix(1.01205 0 0 1 823 258)"/><path d="M29.3958 32.8542C25.6218 32.859 22.2853 35.3073 21.1486 38.9062L12.1042 38.9062 12.1042 44.0938 21.1486 44.0938C22.5816 48.6485 27.4358 51.1793 31.9906 49.7462 34.685 48.8985 36.7954 46.788 37.6431 44.0938L70.8958 44.0938 70.8958 38.9062 37.6431 38.9062C36.5063 35.3073 33.1699 32.859 29.3958 32.8542ZM29.3958 44.9583C27.4859 44.9583 25.9375 43.41 25.9375 41.5 25.9375 39.59 27.4859 38.0417 29.3958 38.0417 31.3058 38.0417 32.8542 39.59 32.8542 41.5 32.8542 43.41 31.3058 44.9583 29.3958 44.9583Z" fill="#FF0000" transform="matrix(1.01205 0 0 1 823 258)"/></g></svg>