<svg width="86" height="87" xmlns="http://www.w3.org/2000/svg" xmlns:xlink="http://www.w3.org/1999/xlink" xml:space="preserve" overflow="hidden"><g transform="translate(-979 -243)"><path d="M73.4583 20.6042 64.4471 20.6042C63.9381 16.1805 59.9394 13.0071 55.5159 13.5162 51.793 13.9445 48.8562 16.8814 48.4279 20.6042L12.5417 20.6042 12.5417 22.3958 48.4279 22.3958C48.9369 26.8195 52.9356 29.9929 57.3591 29.4838 61.0819 29.0555 64.0188 26.1186 64.4471 22.3958L73.4583 22.3958ZM56.4375 27.7708C52.9742 27.7708 50.1667 24.9633 50.1667 21.5 50.1667 18.0367 52.9742 15.2292 56.4375 15.2292 59.9008 15.2292 62.7083 18.0367 62.7083 21.5 62.7044 24.9617 59.8992 27.7669 56.4375 27.7708Z" fill="#FF0000" transform="matrix(1 0 0 1.01163 979 243)"/><path d="M73.4583 65.3958 73.4583 63.6042 60.8638 63.6042C60.3548 59.1805 56.3561 56.0071 51.9325 56.5162 48.2097 56.9445 45.2729 59.8814 44.8445 63.6042L12.5417 63.6042 12.5417 65.3958 44.8445 65.3958C45.3535 69.8195 49.3523 72.9929 53.7758 72.4838 57.4986 72.0555 60.4354 69.1186 60.8638 65.3958ZM52.8542 70.7708C49.3909 70.7708 46.5833 67.9633 46.5833 64.5 46.5833 61.0367 49.3909 58.2292 52.8542 58.2292 56.3175 58.2292 59.125 61.0367 59.125 64.5 59.1211 67.9617 56.3158 70.7669 52.8542 70.7708Z" fill="#FF0000" transform="matrix(1 0 0 1.01163 979 243)"/><path d="M30.4583 34.9375C26.3534 34.939 22.9048 38.0245 22.4487 42.1042L12.5417 42.1042 12.5417 43.8958 22.4487 43.8958C22.9577 48.3195 26.9564 51.4929 31.38 50.9838 35.1028 50.5555 38.0396 47.6186 38.468 43.8958L73.4583 43.8958 73.4583 42.1042 38.468 42.1042C38.0119 38.0245 34.5633 34.939 30.4583 34.9375ZM30.4583 49.2708C26.995 49.2708 24.1875 46.4633 24.1875 43 24.1875 39.5367 26.995 36.7292 30.4583 36.7292 33.9216 36.7292 36.7292 39.5367 36.7292 43 36.7252 46.4617 33.92 49.2669 30.4583 49.2708Z" fill="#FF0000" transform="matrix(1 0 0 1.01163 979 243)"/></g></svg>